<svg width="192" height="192" viewBox="0 0 192 192" fill="none" xmlns="http://www.w3.org/2000/svg">
  <defs>
    <linearGradient id="bg" x1="24" y1="16" x2="168" y2="176" gradientUnits="userSpaceOnUse">
      <stop stop-color="#1a1230"/>
      <stop offset="1" stop-color="#07050e"/>
    </linearGradient>
    <linearGradient id="acc" x1="52" y1="54" x2="140" y2="140" gradientUnits="userSpaceOnUse">
      <stop stop-color="#a78bfa"/>
      <stop offset="1" stop-color="#7c3aed"/>
    </linearGradient>
  </defs>
  <rect x="8" y="8" width="176" height="176" rx="40" fill="url(#bg)"/>
  <rect x="8.5" y="8.5" width="175" height="175" rx="39.5" stroke="#c4b5fd" stroke-opacity="0.25"/>
  <path d="M53 105C53 78 73 58 96 58C119 58 139 78 139 102V109H126V102C126 85 113 72 96 72C79 72 66 86 66 104V109H53V105Z" fill="url(#acc)"/>
  <path d="M61 111H78C82 111 85 114 85 118V124C85 128 82 131 78 131H61C57 131 54 128 54 124V118C54 114 57 111 61 111Z" fill="#f5f3ff"/>
  <path d="M114 111H131C135 111 138 114 138 118V124C138 128 135 131 131 131H114C110 131 107 128 107 124V118C107 114 110 111 114 111Z" fill="#f5f3ff"/>
  <circle cx="96" cy="96" r="52" stroke="#8b5cf6" stroke-opacity="0.2" stroke-width="2"/>
</svg>
